<svg width="13" height="13" viewBox="0 0 13 13" fill="none" xmlns="http://www.w3.org/2000/svg">
<path fill-rule="evenodd" clip-rule="evenodd" d="M7.56584 6.49954L11.8443 2.22109C12.2381 1.82726 12.2381 1.18872 11.8443 0.794945C11.4504 0.401109 10.812 0.401109 10.4181 0.794945L6.13963 5.07345L1.86113 0.794889C1.4673 0.401053 0.828819 0.401053 0.434983 0.794889C0.0412035 1.18872 0.0412035 1.82726 0.434983 2.22104L4.71349 6.49948L0.434983 10.778C0.0412035 11.1718 0.0412035 11.8104 0.434983 12.2041C0.828819 12.598 1.4673 12.598 1.86113 12.2041L6.13963 7.92563L10.4181 12.2041C10.8119 12.598 11.4504 12.598 11.8443 12.2041C12.2381 11.8103 12.2381 11.1718 11.8443 10.778L7.56584 6.49954Z" fill="#282A30"/>
</svg>
