<svg width="418" height="418" viewBox="0 0 418 418" fill="none" xmlns="http://www.w3.org/2000/svg">
<rect width="418" height="418" fill="#F5F5F5"/>
<g clip-path="url(#clip0_4_6)">
<path fill-rule="evenodd" clip-rule="evenodd" d="M126 198.13V198.253L153.949 211.383L181.999 198.209V198.176L153.949 185L126 198.13ZM136.077 198.192L153.949 189.795L171.826 198.192L153.949 206.588L136.077 198.192ZM153.949 216.483L126 203.55V208.334L153.949 221.298L181.999 208.289V203.505L153.949 216.483ZM153.949 226.186L126 213.25V218.033L153.949 231L181.999 217.99V213.206L153.949 226.186Z" fill="#0F0E27"/>
</g>
<path fill-rule="evenodd" clip-rule="evenodd" d="M285.556 208.152C285.573 206.087 284.8 204.093 283.395 202.579C282.735 201.871 281.939 201.302 281.055 200.906C280.159 200.504 279.187 200.299 278.205 200.305C277.195 200.305 276.244 200.505 275.353 200.906C274.47 201.302 273.674 201.871 273.013 202.579C271.609 204.094 270.837 206.088 270.854 208.153C270.837 210.218 271.61 212.211 273.013 213.726C273.674 214.434 274.47 215.002 275.353 215.398C276.25 215.8 277.222 216.006 278.204 216C279.214 216 280.164 215.8 281.056 215.398C281.94 215.002 282.735 214.434 283.395 213.726C284.8 212.211 285.573 210.217 285.556 208.152ZM291.971 208.152C291.971 210.084 291.614 211.875 290.901 213.525C290.216 215.134 289.217 216.589 287.961 217.805C286.714 219.01 285.251 219.961 283.573 220.659C281.895 221.358 280.105 221.707 278.204 221.707C276.304 221.707 274.521 221.358 272.858 220.659C271.234 219.986 269.752 219.01 268.493 217.783C267.24 216.556 266.241 215.094 265.553 213.481C264.84 211.831 264.483 210.055 264.483 208.152C264.483 206.279 264.847 204.518 265.575 202.868C266.279 201.252 267.284 199.784 268.537 198.543C269.792 197.304 271.275 196.32 272.903 195.645C274.582 194.943 276.385 194.587 278.204 194.597C280.105 194.597 281.894 194.947 283.573 195.645C285.251 196.343 286.713 197.295 287.961 198.499C289.209 199.703 290.189 201.137 290.901 202.801C291.614 204.466 291.971 206.25 291.971 208.152ZM262.255 220.905C261.705 221.158 261.13 221.353 260.54 221.485C259.902 221.633 259.24 221.707 258.558 221.707C257.631 221.71 256.709 221.583 255.818 221.328C254.972 221.092 254.189 220.674 253.523 220.102C252.87 219.537 252.35 218.802 251.963 217.895C251.578 216.988 251.385 215.895 251.385 214.618V184.029H257.934V213.503C257.934 214.573 258.149 215.309 258.58 215.71C259.01 216.111 259.523 216.312 260.117 216.312C260.859 216.312 261.572 216.089 262.255 215.643V220.905ZM248.489 195.22L236.905 225.854C236.044 228.143 234.915 229.793 233.519 230.804C232.123 231.814 230.459 232.319 228.53 232.319C228.233 232.319 227.907 232.297 227.55 232.253C227.204 232.21 226.861 232.143 226.525 232.052L224.387 226.077C224.887 226.313 225.41 226.5 225.947 226.634C226.481 226.768 226.986 226.835 227.461 226.835C228.471 226.835 229.391 226.605 230.222 226.144C231.054 225.684 231.692 224.829 232.138 223.58L233.029 220.994L223.095 195.221H230.09L236.014 211.809L241.584 195.221L248.489 195.22ZM221.536 191.342H204.784V199.636H221.313V205.254H204.783V221.038H198.013V185.412H221.537L221.536 191.342Z" fill="black"/>
<defs>
<clipPath id="clip0_4_6">
<rect width="166" height="49" fill="white" transform="translate(126 184)"/>
</clipPath>
</defs>
</svg>
