<svg width="25" height="24" viewBox="0 0 25 24" fill="none" xmlns="http://www.w3.org/2000/svg">
<rect x="24.5" y="24" width="24" height="24" transform="rotate(-180 24.5 24)" fill="#FF0000" fill-opacity="0.01"/>
<path fill-rule="evenodd" clip-rule="evenodd" d="M10.9 20L20.5 20C21.3841 20 22.1 19.2834 22.1 18.4C22.1 17.5166 21.3841 16.8 20.5 16.8L10.9 16.8C10.0158 16.8 9.29998 17.5166 9.29998 18.4C9.29998 19.2834 10.0158 20 10.9 20ZM7.69998 13.6L20.5 13.6C21.4289 13.6 22.1 12.8834 22.1 12C22.1 11.1166 21.4289 10.4 20.5 10.4L7.69998 10.4C6.77109 10.4 6.09998 11.1166 6.09998 12C6.09998 12.8834 6.77109 13.6 7.69998 13.6ZM20.5 7.2L4.49998 7.2C3.54424 7.2 2.89998 6.48343 2.89998 5.6C2.89998 4.71657 3.54424 4 4.49998 4L20.5 4C21.4557 4 22.1 4.71657 22.1 5.6C22.1 6.48343 21.4557 7.2 20.5 7.2Z" fill="black"/>
<mask id="mask0_606_3448" style="mask-type:luminance" maskUnits="userSpaceOnUse" x="2" y="4" width="21" height="16">
<path fill-rule="evenodd" clip-rule="evenodd" d="M10.9 20L20.5 20C21.3841 20 22.1 19.2834 22.1 18.4C22.1 17.5166 21.3841 16.8 20.5 16.8L10.9 16.8C10.0158 16.8 9.29998 17.5166 9.29998 18.4C9.29998 19.2834 10.0158 20 10.9 20ZM7.69998 13.6L20.5 13.6C21.4289 13.6 22.1 12.8834 22.1 12C22.1 11.1166 21.4289 10.4 20.5 10.4L7.69998 10.4C6.77109 10.4 6.09998 11.1166 6.09998 12C6.09998 12.8834 6.77109 13.6 7.69998 13.6ZM20.5 7.2L4.49998 7.2C3.54424 7.2 2.89998 6.48343 2.89998 5.6C2.89998 4.71657 3.54424 4 4.49998 4L20.5 4C21.4557 4 22.1 4.71657 22.1 5.6C22.1 6.48343 21.4557 7.2 20.5 7.2Z" fill="white"/>
</mask>
<g mask="url(#mask0_606_3448)">
<rect x="24.5" y="24" width="24" height="24" transform="rotate(-180 24.5 24)" fill="white"/>
</g>
</svg>
