<svg width="418" height="418" viewBox="0 0 418 418" fill="none" xmlns="http://www.w3.org/2000/svg">
<rect width="418" height="418" fill="#F4585C"/>
<path d="M47.8963 198.182H53.5852L59.5938 212.841H59.8494L65.858 198.182H71.5469V220H67.0724V205.799H66.8913L61.245 219.893H58.1982L52.5518 205.746H52.3707V220H47.8963V198.182ZM95.3972 209.091C95.3972 211.47 94.9462 213.494 94.0442 215.163C93.1493 216.832 91.9277 218.107 90.3794 218.988C88.8382 219.862 87.1053 220.298 85.1806 220.298C83.2417 220.298 81.5016 219.858 79.9604 218.977C78.4192 218.097 77.2012 216.822 76.3063 215.153C75.4114 213.484 74.964 211.463 74.964 209.091C74.964 206.712 75.4114 204.688 76.3063 203.018C77.2012 201.349 78.4192 200.078 79.9604 199.205C81.5016 198.324 83.2417 197.884 85.1806 197.884C87.1053 197.884 88.8382 198.324 90.3794 199.205C91.9277 200.078 93.1493 201.349 94.0442 203.018C94.9462 204.688 95.3972 206.712 95.3972 209.091ZM90.7203 209.091C90.7203 207.55 90.4895 206.25 90.0279 205.192C89.5733 204.134 88.9306 203.331 88.0996 202.784C87.2686 202.237 86.2956 201.964 85.1806 201.964C84.0655 201.964 83.0925 202.237 82.2615 202.784C81.4306 203.331 80.7843 204.134 80.3226 205.192C79.8681 206.25 79.6408 207.55 79.6408 209.091C79.6408 210.632 79.8681 211.932 80.3226 212.99C80.7843 214.048 81.4306 214.851 82.2615 215.398C83.0925 215.945 84.0655 216.218 85.1806 216.218C86.2956 216.218 87.2686 215.945 88.0996 215.398C88.9306 214.851 89.5733 214.048 90.0279 212.99C90.4895 211.932 90.7203 210.632 90.7203 209.091ZM96.9872 201.985V198.182H114.906V201.985H108.227V220H103.667V201.985H96.9872ZM122.47 198.182V220H117.857V198.182H122.47ZM130.207 198.182L135.481 214.759H135.683L140.967 198.182H146.081L138.559 220H132.615L125.083 198.182H130.207ZM149.567 220H144.624L152.156 198.182H158.1L165.622 220H160.679L155.213 203.168H155.043L149.567 220ZM149.258 211.424H160.934V215.025H149.258V211.424ZM164.751 201.985V198.182H182.67V201.985H175.99V220H171.431V201.985H164.751ZM190.234 198.182V220H185.621V198.182H190.234ZM214.079 209.091C214.079 211.47 213.628 213.494 212.726 215.163C211.831 216.832 210.609 218.107 209.061 218.988C207.52 219.862 205.787 220.298 203.862 220.298C201.923 220.298 200.183 219.858 198.642 218.977C197.101 218.097 195.883 216.822 194.988 215.153C194.093 213.484 193.646 211.463 193.646 209.091C193.646 206.712 194.093 204.688 194.988 203.018C195.883 201.349 197.101 200.078 198.642 199.205C200.183 198.324 201.923 197.884 203.862 197.884C205.787 197.884 207.52 198.324 209.061 199.205C210.609 200.078 211.831 201.349 212.726 203.018C213.628 204.688 214.079 206.712 214.079 209.091ZM209.402 209.091C209.402 207.55 209.171 206.25 208.71 205.192C208.255 204.134 207.612 203.331 206.781 202.784C205.95 202.237 204.977 201.964 203.862 201.964C202.747 201.964 201.774 202.237 200.943 202.784C200.112 203.331 199.466 204.134 199.004 205.192C198.55 206.25 198.322 207.55 198.322 209.091C198.322 210.632 198.55 211.932 199.004 212.99C199.466 214.048 200.112 214.851 200.943 215.398C201.774 215.945 202.747 216.218 203.862 216.218C204.977 216.218 205.95 215.945 206.781 215.398C207.612 214.851 208.255 214.048 208.71 212.99C209.171 211.932 209.402 210.632 209.402 209.091ZM235.745 198.182V220H231.761L222.269 206.268H222.109V220H217.496V198.182H221.544L230.962 211.903H231.154V198.182H235.745ZM254.735 212.415H258.655L260.626 214.95L262.565 217.209L266.219 221.79H261.915L259.401 218.7L258.112 216.868L254.735 212.415ZM266.55 209.091C266.55 211.47 266.099 213.494 265.197 215.163C264.302 216.832 263.08 218.107 261.532 218.988C259.991 219.862 258.258 220.298 256.333 220.298C254.394 220.298 252.654 219.858 251.113 218.977C249.572 218.097 248.354 216.822 247.459 215.153C246.564 213.484 246.116 211.463 246.116 209.091C246.116 206.712 246.564 204.688 247.459 203.018C248.354 201.349 249.572 200.078 251.113 199.205C252.654 198.324 254.394 197.884 256.333 197.884C258.258 197.884 259.991 198.324 261.532 199.205C263.08 200.078 264.302 201.349 265.197 203.018C266.099 204.688 266.55 206.712 266.55 209.091ZM261.873 209.091C261.873 207.55 261.642 206.25 261.18 205.192C260.726 204.134 260.083 203.331 259.252 202.784C258.421 202.237 257.448 201.964 256.333 201.964C255.218 201.964 254.245 202.237 253.414 202.784C252.583 203.331 251.937 204.134 251.475 205.192C251.02 206.25 250.793 207.55 250.793 209.091C250.793 210.632 251.02 211.932 251.475 212.99C251.937 214.048 252.583 214.851 253.414 215.398C254.245 215.945 255.218 216.218 256.333 216.218C257.448 216.218 258.421 215.945 259.252 215.398C260.083 214.851 260.726 214.048 261.18 212.99C261.642 211.932 261.873 210.632 261.873 209.091ZM283.443 198.182H288.056V212.351C288.056 213.942 287.676 215.334 286.916 216.527C286.163 217.72 285.109 218.651 283.752 219.318C282.396 219.979 280.815 220.309 279.011 220.309C277.2 220.309 275.616 219.979 274.26 219.318C272.903 218.651 271.849 217.72 271.096 216.527C270.343 215.334 269.967 213.942 269.967 212.351V198.182H274.58V211.957C274.58 212.788 274.761 213.526 275.123 214.173C275.492 214.819 276.011 215.327 276.678 215.696C277.346 216.065 278.124 216.25 279.011 216.25C279.906 216.25 280.684 216.065 281.344 215.696C282.012 215.327 282.527 214.819 282.889 214.173C283.259 213.526 283.443 212.788 283.443 211.957V198.182ZM311.901 209.091C311.901 211.47 311.45 213.494 310.548 215.163C309.653 216.832 308.432 218.107 306.883 218.988C305.342 219.862 303.609 220.298 301.684 220.298C299.746 220.298 298.006 219.858 296.464 218.977C294.923 218.097 293.705 216.822 292.81 215.153C291.915 213.484 291.468 211.463 291.468 209.091C291.468 206.712 291.915 204.688 292.81 203.018C293.705 201.349 294.923 200.078 296.464 199.205C298.006 198.324 299.746 197.884 301.684 197.884C303.609 197.884 305.342 198.324 306.883 199.205C308.432 200.078 309.653 201.349 310.548 203.018C311.45 204.688 311.901 206.712 311.901 209.091ZM307.224 209.091C307.224 207.55 306.993 206.25 306.532 205.192C306.077 204.134 305.434 203.331 304.604 202.784C303.773 202.237 302.8 201.964 301.684 201.964C300.569 201.964 299.596 202.237 298.765 202.784C297.934 203.331 297.288 204.134 296.827 205.192C296.372 206.25 296.145 207.55 296.145 209.091C296.145 210.632 296.372 211.932 296.827 212.99C297.288 214.048 297.934 214.851 298.765 215.398C299.596 215.945 300.569 216.218 301.684 216.218C302.8 216.218 303.773 215.945 304.604 215.398C305.434 214.851 306.077 214.048 306.532 212.99C306.993 211.932 307.224 210.632 307.224 209.091ZM313.491 201.985V198.182H331.41V201.985H324.73V220H320.171V201.985H313.491ZM334.361 220V198.182H349.063V201.985H338.974V207.184H348.306V210.987H338.974V216.197H349.105V220H334.361ZM364.566 204.457C364.481 203.597 364.115 202.93 363.469 202.454C362.823 201.978 361.945 201.74 360.838 201.74C360.085 201.74 359.449 201.847 358.931 202.06C358.412 202.266 358.014 202.553 357.737 202.923C357.468 203.292 357.333 203.711 357.333 204.18C357.318 204.57 357.4 204.911 357.578 205.202C357.762 205.494 358.014 205.746 358.334 205.959C358.654 206.165 359.023 206.346 359.442 206.502C359.861 206.651 360.308 206.779 360.784 206.886L362.744 207.354C363.696 207.567 364.57 207.852 365.365 208.207C366.161 208.562 366.85 208.999 367.432 209.517C368.014 210.036 368.465 210.646 368.785 211.349C369.112 212.053 369.279 212.859 369.286 213.768C369.279 215.103 368.938 216.261 368.263 217.241C367.595 218.214 366.629 218.97 365.365 219.51C364.108 220.043 362.592 220.309 360.816 220.309C359.055 220.309 357.521 220.039 356.214 219.499C354.914 218.96 353.899 218.161 353.167 217.102C352.443 216.037 352.063 214.719 352.027 213.15H356.491C356.541 213.881 356.75 214.492 357.119 214.982C357.496 215.465 357.997 215.831 358.622 216.08C359.254 216.321 359.968 216.442 360.763 216.442C361.544 216.442 362.222 216.328 362.798 216.101C363.38 215.874 363.831 215.558 364.151 215.153C364.47 214.748 364.63 214.283 364.63 213.757C364.63 213.267 364.485 212.855 364.193 212.521C363.909 212.187 363.49 211.903 362.936 211.669C362.389 211.435 361.718 211.222 360.923 211.03L358.547 210.433C356.708 209.986 355.255 209.286 354.19 208.335C353.124 207.383 352.595 206.101 352.602 204.489C352.595 203.168 352.947 202.013 353.657 201.026C354.374 200.039 355.358 199.268 356.608 198.714C357.858 198.161 359.279 197.884 360.869 197.884C362.489 197.884 363.902 198.161 365.11 198.714C366.324 199.268 367.269 200.039 367.943 201.026C368.618 202.013 368.966 203.157 368.987 204.457H364.566Z" fill="white"/>
</svg>
